<svg width="469" height="307" viewBox="0 0 469 307" fill="none" xmlns="http://www.w3.org/2000/svg">
<g clip-path="url(#clip0_13_998)">
<path d="M432.721 148.243H52.4142C47.3166 148.243 43.1694 144.097 43.1694 139.002V9.24029C43.1694 4.14517 47.3166 3.8147e-06 52.4142 3.8147e-06H432.721C437.819 3.8147e-06 441.966 4.14517 441.966 9.24029V139.002C441.966 144.097 437.819 148.243 432.721 148.243ZM52.4142 1.10165C47.9244 1.10165 44.2716 4.75274 44.2716 9.24029V139.002C44.2716 143.49 47.9244 147.141 52.4142 147.141H432.721C437.211 147.141 440.864 143.49 440.864 139.002V9.24029C440.864 4.75274 437.211 1.10165 432.721 1.10165H52.4142Z" fill="#3F3D56"/>
<path d="M469 303.26H0V304.187H469V303.26Z" fill="#D9D9D9"/>
<path d="M469 255.889H0V256.816H469V255.889Z" fill="#D9D9D9"/>
<path d="M213.736 153.015C214.073 157.245 216.53 160.5 219.223 160.286C221.917 160.071 223.827 156.468 223.489 152.236C223.378 150.544 222.862 148.903 221.986 147.451L220.333 129.545L211.942 130.499L214.463 148.05C213.828 149.623 213.578 151.326 213.736 153.015Z" fill="#C7DCF2"/>
<path d="M203.713 69.4772C203.713 69.4772 211.557 65.3273 215.533 71.5288C219.51 77.7302 222.255 144.8 222.255 144.8L211.232 145.976L209.143 98.7141L203.713 69.4772V69.4772Z" fill="#D9D9D9"/>
<path d="M187.435 252.39L193.821 252.389L196.858 227.77L187.434 227.771L187.435 252.39Z" fill="#C7DCF2"/>
<path d="M209.313 252.245C209.512 252.58 209.617 253.66 209.617 254.049C209.617 255.246 208.647 256.216 207.45 256.216H187.674C186.857 256.216 186.195 255.554 186.195 254.738V253.915C186.195 253.915 185.217 251.442 187.231 248.393C187.231 248.393 189.734 250.78 193.475 247.041L194.578 245.044L202.562 250.881L206.988 251.425C207.956 251.544 208.815 251.407 209.313 252.245H209.313H209.313Z" fill="#2F2E41"/>
<path d="M224.388 251.333L230.575 249.753L227.422 225.149L218.291 227.481L224.388 251.333Z" fill="#C7DCF2"/>
<path d="M245.55 245.781C245.825 246.056 246.195 247.076 246.291 247.454C246.587 248.613 245.887 249.793 244.727 250.089L225.567 254.981C224.776 255.183 223.971 254.706 223.768 253.915L223.565 253.117C223.565 253.117 222.004 250.963 223.201 247.511C223.201 247.511 226.217 249.205 228.916 244.657L229.49 242.449L238.671 246.129L243.094 245.561C244.062 245.437 244.86 245.092 245.55 245.781H245.55Z" fill="#2F2E41"/>
<path d="M182.152 64.1849L181.849 61.9887L185.448 53.2042L195.335 52.1062L197.47 64.6823L182.152 64.1849Z" fill="#C7DCF2"/>
<path d="M170.616 126.226L166.222 138.304L169.518 144.893L185.997 240.424H196.953L194.786 155.873L220.054 240.424H230.897L222.177 183.325L215.659 130.618L211.706 128.177L192.588 117.441L170.616 126.226Z" fill="#2F2E41"/>
<path d="M198.631 134.461L192.039 135.559L183.25 114.696H203.025L198.631 134.461Z" fill="#D9D9D9"/>
<path d="M211.814 128.971L198.631 134.461L194.236 124.578L192.039 135.559L168.969 128.136L172.264 114.696L168.969 70.7733L180.603 63.0209L182.152 61.9887L196.434 63.0868L197.686 63.7676L206.321 68.5771L208.518 104.813L211.814 128.971Z" fill="#2F2E41"/>
<path d="M197.686 63.7676L191.49 89.9894L180.603 63.0209L182.152 61.9887L196.434 63.0868L197.686 63.7676Z" fill="#D9D9D9"/>
<path d="M187.095 61.9887L184.898 65.771L187.095 67.0317L185.997 90.0576L190.391 96.0288L194.786 87.2036L191.49 67.0317L192.588 61.9887H187.095Z" fill="#2F2E41"/>
<path d="M190.437 58.8632C196.201 58.8632 200.873 54.1928 200.873 48.4316C200.873 42.6704 196.201 38 190.437 38C184.673 38 180 42.6704 180 48.4316C180 54.1928 184.673 58.8632 190.437 58.8632Z" fill="#C7DCF2"/>
<path d="M183.721 50.276L185.977 51.2597L186.961 45.3576C186.961 45.3576 190.897 43.3903 193.85 44.3739C196.802 45.3576 201.723 44.3739 201.723 44.3739C201.723 44.3739 201.723 34.5371 194.834 34.5371C187.945 34.5371 181.056 35.5208 181.056 38.4718C181.056 41.4229 178.103 44.3739 178.103 44.3739C178.103 44.3739 174.167 50.276 178.103 54.2108C182.04 58.1455 184.008 58.1455 184.008 58.1455L183.721 50.276Z" fill="#2F2E41"/>
<path d="M163.47 152.706C163.356 156.948 165.453 160.446 168.154 160.518C170.855 160.591 173.137 157.211 173.251 152.967C173.32 151.272 172.981 149.586 172.264 148.049L172.522 130.069L164.078 130.128L164.72 147.847C163.921 149.343 163.493 151.01 163.47 152.706V152.706Z" fill="#C7DCF2"/>
<path d="M173.918 68.5565C173.918 68.5565 166.777 66.3604 163.481 72.9488C160.185 79.5372 164.579 146.519 164.579 146.519H175.665L172.723 99.3024L173.918 68.5565V68.5565Z" fill="#D9D9D9"/>
<path d="M447.851 193.344L421.221 185.196C420.632 185.016 420.014 184.95 419.4 185.002L284.436 196.483C282.512 196.646 282.028 199.241 283.764 200.086L288.087 202.191H287.972V302.965H292.046V204.119L305.595 210.716C306.632 211.221 307.788 211.427 308.936 211.311L310.377 211.166V302.965H314.451V210.754L418.839 200.215V302.965H422.913V199.804L440.226 198.056V302.965H444.3V197.645L447.458 197.326C449.676 197.102 449.982 193.996 447.851 193.344H447.851Z" fill="#3F3D56"/>
<path d="M323.617 196.084C326.163 196.084 363.844 191.503 363.844 191.503L369.446 199.137L330.237 206.772L323.617 196.084Z" fill="white"/>
<path d="M364.973 299.052L358.426 299.04L355.355 273.795L365.018 273.812L364.973 299.052Z" fill="#C7DCF2"/>
<path d="M342.543 298.865C342.339 299.207 342.23 300.315 342.229 300.714C342.227 301.94 343.22 302.936 344.447 302.938L364.721 302.973C365.558 302.975 366.238 302.298 366.24 301.461L366.241 300.617C366.241 300.617 367.248 298.083 365.189 294.954C365.189 294.954 362.618 297.397 358.79 293.557L357.663 291.508L349.467 297.478L344.928 298.028C343.935 298.149 343.056 298.006 342.544 298.865H342.543L342.543 298.865Z" fill="#2F2E41"/>
<path d="M400.11 287.312L394.944 291.206L377.458 273.146L385.082 267.399L400.11 287.312Z" fill="#C7DCF2"/>
<path d="M382.326 300.538C382.369 300.93 382.944 301.868 383.181 302.182C383.912 303.15 385.288 303.343 386.257 302.613L402.252 290.552C402.912 290.054 403.044 289.115 402.546 288.455L402.043 287.79C402.043 287.79 401.325 285.193 397.835 283.955C397.835 283.955 397.267 287.412 391.959 286.67L389.848 285.727L386.953 295.317L383.705 298.457C382.995 299.144 382.217 299.556 382.326 300.538L382.326 300.538Z" fill="#2F2E41"/>
<path d="M386.427 156.842C386.427 162.876 381.533 167.767 375.496 167.767C369.459 167.767 364.565 162.876 364.565 156.842C364.565 150.807 369.459 145.916 375.496 145.916C381.533 145.916 386.427 150.807 386.427 156.842Z" fill="#C7DCF2"/>
<path d="M385.397 219.838C385.397 219.838 345.15 217.56 342.872 222.115C340.594 226.669 355.188 289.223 355.188 289.223L368.208 286.496L361.857 242.608C361.857 242.608 395.442 251.498 399.998 240.872C404.555 230.246 403.243 226.289 403.243 226.289L385.397 219.838Z" fill="#2F2E41"/>
<path d="M395.709 212.193C395.709 212.193 356.293 220.639 355.301 225.633C354.31 230.627 384.94 287.095 384.94 287.095L396.775 281.022L379.033 240.377C379.033 240.377 413.776 240.07 415.357 228.618C416.939 217.166 414.627 213.697 414.627 213.697L395.709 212.193Z" fill="#2F2E41"/>
<path d="M400.206 169.363H381.269L368.311 190.616C368.311 190.616 365.274 204.349 368.311 205.832C371.349 207.314 371.349 223.253 371.349 223.253L403.243 226.289C403.243 226.289 407.799 178.471 406.281 173.917C404.762 169.363 400.206 169.363 400.206 169.363Z" fill="#007B7C"/>
<path d="M370.21 183.405L368.311 205.832L346.958 196.773L341.861 194.212C340.863 192.911 339.568 191.868 338.084 191.17C334.393 189.372 330.474 189.817 329.33 192.164C328.186 194.511 330.249 197.87 333.939 199.667C335.404 200.406 337.024 200.783 338.665 200.767L353.577 209.232L353.594 209.199L353.66 209.317L377.044 219.078L382.425 189.637L370.21 183.405H370.21Z" fill="#C7DCF2"/>
<path d="M367.932 158.357C367.932 158.357 356.541 159.875 361.097 150.008C361.097 150.008 360.402 144.659 363.787 144.298C367.172 143.936 371.729 137.864 371.729 137.864C371.729 137.864 382.175 132.551 387.583 137.864C392.991 143.177 408.938 174.297 408.938 174.297L398.307 185.682C398.307 185.682 391.916 168.888 384.48 170.833C377.044 172.779 370.21 178.579 370.21 178.579C370.21 178.579 362.664 174.804 366.057 171.514C369.45 168.225 367.932 158.357 367.932 158.357Z" fill="#2F2E41"/>
<path d="M383.119 175.056C383.119 175.056 377.804 168.225 374.007 173.538C370.21 178.851 367.172 185.682 367.172 185.682L382.36 190.995L383.119 175.056H383.119Z" fill="#007B7C"/>
<path d="M440.785 301.454L423.139 245.397L423.142 245.397H423.183L423.111 245.305L423.11 245.303L421.853 241.31L421.854 241.31C423.768 239.661 425.072 237.304 425.332 234.591L417.266 190.251C417.821 184.428 413.355 179.339 407.504 179.13L389.305 179.084C384.131 178.901 379.65 182.637 378.897 187.757L378.494 190.475L372.919 228.387C372.715 229.751 372.796 231.095 373.117 232.352L369.105 232.876L367.888 233.039L363.076 233.665L363.06 233.67L362.459 233.747H361.808V250.033H361.848V302.09C361.848 302.426 362.123 302.701 362.459 302.701C362.801 302.701 363.076 302.426 363.076 302.09V250.033H370.215L377.339 302.029C377.384 302.334 377.644 302.558 377.95 302.558C377.975 302.558 378.006 302.558 378.031 302.553C378.367 302.507 378.601 302.197 378.556 301.861L371.457 250.033H405.712C409.113 250.033 412.265 248.955 414.831 247.107L428.412 301.933C428.483 302.211 428.732 302.395 429.006 302.395C429.056 302.395 429.107 302.389 429.158 302.376C429.486 302.293 429.685 301.959 429.601 301.631L415.888 246.275C416.071 246.123 416.253 245.961 416.426 245.794L421.878 245.473L439.615 301.823C439.697 302.084 439.939 302.252 440.2 302.252C440.261 302.252 440.323 302.243 440.384 302.223C440.707 302.122 440.887 301.777 440.785 301.454ZM420.688 242.18C420.733 242.155 420.774 242.124 420.815 242.099L420.815 242.098L420.946 242.515L420.688 242.18Z" fill="#D9D9D9"/>
<path d="M94.5486 206.435L106.424 198.886L111.252 201.797L94.5486 220.981V206.435Z" fill="#C7DCF2"/>
<path d="M78.309 177.218C78.309 177.218 70.4212 179.073 74.1331 189.74C77.8451 200.406 89.9088 222.667 93.6207 221.275C97.3326 219.884 97.7966 205.971 97.7966 205.971C97.7966 205.971 97.3326 206.435 95.4766 204.58C93.6207 202.725 93.6207 203.572 93.6207 201.525C93.6207 199.478 92.1026 197.961 92.1026 197.961L90.3727 194.377C90.3727 194.377 90.3727 177.682 83.4129 176.754C76.4531 175.827 78.309 177.218 78.309 177.218L78.309 177.218Z" fill="#D9D9D9"/>
<path d="M115.161 201.299C118.242 198.22 119.196 194.182 117.294 192.281C115.391 190.379 111.352 191.333 108.271 194.412C105.191 197.491 104.236 201.528 106.139 203.43C108.041 205.332 112.081 204.377 115.161 201.299Z" fill="#C7DCF2"/>
<path d="M47.5859 238.667L55.6893 252.072L102.912 249.279L90.338 233.081L47.5859 238.667Z" fill="#D9D9D9"/>
<path d="M61.6962 301.367C61.4212 301.367 61.1816 301.164 61.1432 300.884L47.0323 197.876C46.9904 197.57 47.2043 197.288 47.5101 197.247C47.8157 197.203 48.0976 197.419 48.1396 197.724L62.2506 300.732C62.2925 301.038 62.0785 301.32 61.7728 301.362C61.747 301.365 61.7215 301.367 61.6962 301.367Z" fill="#D9D9D9"/>
<path d="M47.5859 301.498C47.2773 301.498 47.0271 301.248 47.0271 300.939V197.82C47.0271 197.512 47.2773 197.261 47.5859 197.261C47.8945 197.261 48.1448 197.512 48.1448 197.82V300.939C48.1448 301.248 47.8945 301.498 47.5859 301.498Z" fill="#D9D9D9"/>
<path d="M118.42 301.088C118.183 301.088 117.962 300.935 117.887 300.697L84.4959 194.616C84.4032 194.322 84.5668 194.009 84.8612 193.916C85.1555 193.824 85.4695 193.987 85.562 194.281L118.953 300.361C119.046 300.655 118.882 300.969 118.588 301.062C118.532 301.079 118.476 301.088 118.42 301.088Z" fill="#D9D9D9"/>
<path d="M108.221 301.218C107.971 301.218 107.744 301.05 107.68 300.798L84.4873 207.174C84.4113 206.875 84.592 206.571 84.8911 206.495C85.1911 206.42 85.4944 206.6 85.5706 206.899L108.763 300.522C108.839 300.821 108.658 301.125 108.359 301.201C108.313 301.213 108.266 301.218 108.221 301.218H108.221Z" fill="#D9D9D9"/>
<path d="M47.5859 199.463L86.2863 198.868L93.4117 239.504H48.1448L47.5859 199.463Z" fill="#D9D9D9"/>
<path d="M107.059 259.216L97.3056 276.379L108.63 278.871L113.351 266.664L107.059 259.216Z" fill="#C7DCF2"/>
<path d="M100.809 273.138C100.809 273.138 100.43 270.34 98.2017 271.228C95.9736 272.116 89.5433 275.417 89.5433 275.417C89.5433 275.417 106.315 302.655 109.498 301.387C112.681 300.118 108.871 292.418 108.871 292.418L109.712 278.808L100.809 273.138H100.809Z" fill="#2F2E41"/>
<path d="M63.9254 225.913C63.9254 225.913 60.4455 241.913 71.1172 247.478C81.7889 253.043 118.212 239.362 118.212 239.362L101.508 264.378L113.108 269.043C113.108 269.043 139.555 234.261 137.7 228.695C135.844 223.13 123.316 222.667 123.316 222.667L95.0126 224.058L87.5888 221.739L63.9254 225.913H63.9254Z" fill="#2F2E41"/>
<path d="M92.6299 266.833L77.297 279.272L86.9377 285.712L95.7793 276.059L92.6299 266.833Z" fill="#C7DCF2"/>
<path d="M81.7395 277.528C81.7395 277.528 82.4055 274.783 80.0068 274.8C77.6082 274.817 70.417 275.553 70.417 275.553C70.417 275.553 76.1224 307.024 79.5491 307C82.9758 306.976 82.2299 298.418 82.2299 298.418L87.9681 286.047L81.7395 277.528Z" fill="#2F2E41"/>
<path d="M64.5778 220.125C64.5778 220.125 55.5116 233.763 63.4256 242.828C71.3397 251.893 110.247 252.397 110.247 252.397L85.5808 269.622L94.687 278.186C94.687 278.186 131.984 255.408 132.281 249.549C132.579 243.691 121.079 238.702 121.079 238.702L94.2092 229.704L88.1385 224.844L64.5778 220.125H64.5778Z" fill="#2F2E41"/>
<path d="M87.8683 188.538C87.8683 188.538 79.0525 185.292 74.8766 185.292C74.4776 185.292 74.0832 185.338 73.6888 185.422C71.0162 185.988 68.5571 188.283 67.3786 189.536C66.9192 190.027 66.6547 190.356 66.6547 190.356C66.6547 190.356 66.6826 190.036 66.7383 189.475C67.012 186.526 68.0235 176.847 69.8377 170.651C70.4873 168.439 71.2343 166.672 72.0927 165.814C74.0925 163.811 75.0158 161.408 75.4427 159.618C75.8046 158.083 75.8046 157.003 75.8046 157.003L72.4221 155.547L71.7957 151.456C71.6844 151.938 71.1693 152.88 69.4387 154.684C69.2902 154.837 69.1278 154.967 68.9561 155.078C66.4598 156.646 61.3699 153.919 58.6277 152.203C59.7691 148.238 61.8385 144.611 65.5968 144.017C74.4126 142.626 74.4126 137.525 79.9805 143.09C80.4398 143.549 80.9038 143.99 81.3678 144.416C83.1495 147.82 83.7991 152.384 84.0311 155.556C84.1981 157.777 84.1564 159.322 84.1564 159.322C84.1564 159.322 86.4763 173.234 90.1882 176.017C93.9001 178.799 87.8683 188.538 87.8683 188.538Z" fill="#2F2E41"/>
<path d="M79.469 175.131L66.0133 169.566C66.0133 169.566 47.9178 177.45 49.3098 192.754C50.7017 208.058 63.6934 234.492 63.6934 234.492L89.6768 223.362L86.8928 193.682L79.469 175.131Z" fill="#D9D9D9"/>
<path d="M73.6872 170.731C80.2435 170.731 85.5584 165.418 85.5584 158.865C85.5584 152.312 80.2435 147 73.6872 147C67.131 147 61.8161 152.312 61.8161 158.865C61.8161 165.418 67.131 170.731 73.6872 170.731Z" fill="#C7DCF2"/>
<path d="M89.7242 154.22C87.4043 156.539 85.5483 158.858 85.5483 158.858L84.6204 155.148C84.6204 155.148 84.4069 155.305 84.0311 155.556C82.5603 156.557 78.6117 159.076 75.4427 159.618C74.0322 159.859 72.7794 159.706 71.9628 158.858C70.2321 157.054 69.7171 156.112 69.6057 155.63L68.9793 159.72L65.5968 161.177C65.5968 161.177 65.5968 166.269 69.3088 169.988C69.4897 170.169 69.666 170.391 69.8377 170.651C71.6101 173.322 72.8815 179.861 73.6888 185.422C74.4033 190.366 74.7467 194.53 74.7467 194.53C74.7467 194.53 71.2343 190.134 67.3786 189.536C67.1651 189.503 66.9517 189.48 66.7383 189.475C66.6687 189.466 66.5944 189.466 66.5248 189.466C62.3489 189.466 53.5331 192.712 53.5331 192.712C53.5331 192.712 47.5013 182.973 51.2132 180.191C54.9251 177.408 57.2451 163.495 57.2451 163.495C57.2451 163.495 57.0919 157.541 58.6277 152.203C59.7692 148.238 61.8386 144.611 65.5969 144.017C74.4126 142.626 74.4126 137.525 79.9805 143.09C80.4398 143.549 80.9038 143.99 81.3678 144.416C86.5552 149.184 91.854 152.091 89.7242 154.22Z" fill="#2F2E41"/>
<path d="M37.6584 216.474H33.2497V303.504H37.6584V216.474Z" fill="#3F3D56"/>
<path d="M144.571 216.474H140.162V303.504H144.571V216.474Z" fill="#3F3D56"/>
<path d="M116.465 179.569H87.2569V208.762H116.465V179.569Z" fill="#007B7C"/>
<path d="M70.4087 210.958L82.2842 203.409L87.1123 206.32L70.4087 225.504V210.958Z" fill="#C7DCF2"/>
<path d="M54.1691 181.741C54.1691 181.741 46.2813 183.596 49.9932 194.262C53.7051 204.929 65.7688 227.19 69.4807 225.798C73.1926 224.407 73.6566 210.494 73.6566 210.494C73.6566 210.494 73.1926 210.958 71.3367 209.103C69.4807 207.248 69.4807 208.095 69.4807 206.048C69.4807 204.001 67.9627 202.484 67.9627 202.484L66.2328 198.9C66.2328 198.9 66.2328 182.205 59.273 181.277C52.3132 180.35 54.1691 181.741 54.1691 181.741H54.1691Z" fill="#D9D9D9"/>
<path d="M91.0212 205.822C94.1016 202.743 95.0564 198.705 93.1538 196.804C91.2512 194.902 87.2117 195.856 84.1313 198.935C81.0509 202.014 80.0962 206.051 81.9987 207.953C83.9013 209.855 87.9408 208.9 91.0212 205.822Z" fill="#C7DCF2"/>
<path d="M153.388 213.169H20.0234V223.084H153.388V213.169Z" fill="#3F3D56"/>
<path d="M288.886 133.85H269.19C267.628 133.85 266.363 135.115 266.363 136.676V144.795C266.363 146.356 267.628 147.621 269.19 147.621H288.886C290.447 147.621 291.713 146.356 291.713 144.795V136.676C291.713 135.115 290.447 133.85 288.886 133.85Z" fill="#3F3D56"/>
<path d="M330.218 141.969H310.522C308.96 141.969 307.695 143.235 307.695 144.795V144.795C307.695 146.356 308.96 147.621 310.522 147.621H330.218C331.779 147.621 333.045 146.356 333.045 144.795V144.795C333.045 143.235 331.779 141.969 330.218 141.969Z" fill="#007B7C"/>
<path d="M131.284 9.844L126.16 29.5H120.364L117.228 16.564L113.98 29.5H108.184L103.2 9.844H108.324L111.152 24.152L114.652 9.844H119.916L123.276 24.152L126.132 9.844H131.284ZM148.413 21.436C148.413 21.884 148.385 22.3507 148.329 22.836H137.493C137.568 23.8067 137.876 24.5533 138.417 25.076C138.977 25.58 139.659 25.832 140.461 25.832C141.656 25.832 142.487 25.328 142.953 24.32H148.049C147.788 25.3467 147.312 26.2707 146.621 27.092C145.949 27.9133 145.1 28.5573 144.073 29.024C143.047 29.4907 141.899 29.724 140.629 29.724C139.099 29.724 137.736 29.3973 136.541 28.744C135.347 28.0907 134.413 27.1573 133.741 25.944C133.069 24.7307 132.733 23.312 132.733 21.688C132.733 20.064 133.06 18.6453 133.713 17.432C134.385 16.2187 135.319 15.2853 136.513 14.632C137.708 13.9787 139.08 13.652 140.629 13.652C142.141 13.652 143.485 13.9693 144.661 14.604C145.837 15.2387 146.752 16.144 147.405 17.32C148.077 18.496 148.413 19.868 148.413 21.436ZM143.513 20.176C143.513 19.3547 143.233 18.7013 142.673 18.216C142.113 17.7307 141.413 17.488 140.573 17.488C139.771 17.488 139.089 17.7213 138.529 18.188C137.988 18.6547 137.652 19.3173 137.521 20.176H143.513ZM155.727 8.78V29.5H150.939V8.78H155.727ZM158.245 21.688C158.245 20.064 158.572 18.6453 159.225 17.432C159.897 16.2187 160.821 15.2853 161.997 14.632C163.192 13.9787 164.554 13.652 166.085 13.652C168.045 13.652 169.678 14.1653 170.985 15.192C172.31 16.2187 173.178 17.6653 173.589 19.532H168.493C168.064 18.3373 167.233 17.74 166.001 17.74C165.124 17.74 164.424 18.0853 163.901 18.776C163.378 19.448 163.117 20.4187 163.117 21.688C163.117 22.9573 163.378 23.9373 163.901 24.628C164.424 25.3 165.124 25.636 166.001 25.636C167.233 25.636 168.064 25.0387 168.493 23.844H173.589C173.178 25.6733 172.31 27.1107 170.985 28.156C169.66 29.2013 168.026 29.724 166.085 29.724C164.554 29.724 163.192 29.3973 161.997 28.744C160.821 28.0907 159.897 27.1573 159.225 25.944C158.572 24.7307 158.245 23.312 158.245 21.688ZM183.262 29.724C181.731 29.724 180.35 29.3973 179.118 28.744C177.905 28.0907 176.943 27.1573 176.234 25.944C175.543 24.7307 175.198 23.312 175.198 21.688C175.198 20.0827 175.553 18.6733 176.262 17.46C176.971 16.228 177.942 15.2853 179.174 14.632C180.406 13.9787 181.787 13.652 183.318 13.652C184.849 13.652 186.23 13.9787 187.462 14.632C188.694 15.2853 189.665 16.228 190.374 17.46C191.083 18.6733 191.438 20.0827 191.438 21.688C191.438 23.2933 191.074 24.712 190.346 25.944C189.637 27.1573 188.657 28.0907 187.406 28.744C186.174 29.3973 184.793 29.724 183.262 29.724ZM183.262 25.58C184.177 25.58 184.951 25.244 185.586 24.572C186.239 23.9 186.566 22.9387 186.566 21.688C186.566 20.4373 186.249 19.476 185.614 18.804C184.998 18.132 184.233 17.796 183.318 17.796C182.385 17.796 181.61 18.132 180.994 18.804C180.378 19.4573 180.07 20.4187 180.07 21.688C180.07 22.9387 180.369 23.9 180.966 24.572C181.582 25.244 182.347 25.58 183.262 25.58ZM213.914 13.708C215.856 13.708 217.396 14.296 218.534 15.472C219.692 16.648 220.27 18.2813 220.27 20.372V29.5H215.51V21.016C215.51 20.008 215.24 19.2333 214.698 18.692C214.176 18.132 213.448 17.852 212.514 17.852C211.581 17.852 210.844 18.132 210.302 18.692C209.78 19.2333 209.518 20.008 209.518 21.016V29.5H204.758V21.016C204.758 20.008 204.488 19.2333 203.946 18.692C203.424 18.132 202.696 17.852 201.762 17.852C200.829 17.852 200.092 18.132 199.55 18.692C199.028 19.2333 198.766 20.008 198.766 21.016V29.5H193.978V13.876H198.766V15.836C199.252 15.1827 199.886 14.6693 200.67 14.296C201.454 13.904 202.341 13.708 203.33 13.708C204.506 13.708 205.552 13.96 206.466 14.464C207.4 14.968 208.128 15.6867 208.65 16.62C209.192 15.7613 209.929 15.0613 210.862 14.52C211.796 13.9787 212.813 13.708 213.914 13.708ZM238.347 21.436C238.347 21.884 238.319 22.3507 238.263 22.836H227.427C227.501 23.8067 227.809 24.5533 228.351 25.076C228.911 25.58 229.592 25.832 230.395 25.832C231.589 25.832 232.42 25.328 232.887 24.32H237.983C237.721 25.3467 237.245 26.2707 236.555 27.092C235.883 27.9133 235.033 28.5573 234.007 29.024C232.98 29.4907 231.832 29.724 230.563 29.724C229.032 29.724 227.669 29.3973 226.475 28.744C225.28 28.0907 224.347 27.1573 223.675 25.944C223.003 24.7307 222.667 23.312 222.667 21.688C222.667 20.064 222.993 18.6453 223.647 17.432C224.319 16.2187 225.252 15.2853 226.447 14.632C227.641 13.9787 229.013 13.652 230.563 13.652C232.075 13.652 233.419 13.9693 234.595 14.604C235.771 15.2387 236.685 16.144 237.339 17.32C238.011 18.496 238.347 19.868 238.347 21.436ZM233.447 20.176C233.447 19.3547 233.167 18.7013 232.607 18.216C232.047 17.7307 231.347 17.488 230.507 17.488C229.704 17.488 229.023 17.7213 228.463 18.188C227.921 18.6547 227.585 19.3173 227.455 20.176H233.447ZM255.514 25.44V29.5H253.078C251.342 29.5 249.989 29.08 249.018 28.24C248.048 27.3813 247.562 25.9907 247.562 24.068V17.852H245.658V13.876H247.562V10.068H252.35V13.876H255.486V17.852H252.35V24.124C252.35 24.5907 252.462 24.9267 252.686 25.132C252.91 25.3373 253.284 25.44 253.806 25.44H255.514ZM265.293 29.724C263.763 29.724 262.381 29.3973 261.149 28.744C259.936 28.0907 258.975 27.1573 258.265 25.944C257.575 24.7307 257.229 23.312 257.229 21.688C257.229 20.0827 257.584 18.6733 258.293 17.46C259.003 16.228 259.973 15.2853 261.205 14.632C262.437 13.9787 263.819 13.652 265.349 13.652C266.88 13.652 268.261 13.9787 269.493 14.632C270.725 15.2853 271.696 16.228 272.405 17.46C273.115 18.6733 273.469 20.0827 273.469 21.688C273.469 23.2933 273.105 24.712 272.377 25.944C271.668 27.1573 270.688 28.0907 269.437 28.744C268.205 29.3973 266.824 29.724 265.293 29.724ZM265.293 25.58C266.208 25.58 266.983 25.244 267.617 24.572C268.271 23.9 268.597 22.9387 268.597 21.688C268.597 20.4373 268.28 19.476 267.645 18.804C267.029 18.132 266.264 17.796 265.349 17.796C264.416 17.796 263.641 18.132 263.025 18.804C262.409 19.4573 262.101 20.4187 262.101 21.688C262.101 22.9387 262.4 23.9 262.997 24.572C263.613 25.244 264.379 25.58 265.293 25.58ZM281.131 19.644C281.131 17.7027 281.551 15.976 282.391 14.464C283.231 12.9333 284.398 11.748 285.891 10.908C287.403 10.0493 289.111 9.62 291.015 9.62C293.348 9.62 295.346 10.236 297.007 11.468C298.668 12.7 299.779 14.38 300.339 16.508H295.075C294.683 15.6867 294.123 15.0613 293.395 14.632C292.686 14.2027 291.874 13.988 290.959 13.988C289.484 13.988 288.29 14.5013 287.375 15.528C286.46 16.5547 286.003 17.9267 286.003 19.644C286.003 21.3613 286.46 22.7333 287.375 23.76C288.29 24.7867 289.484 25.3 290.959 25.3C291.874 25.3 292.686 25.0853 293.395 24.656C294.123 24.2267 294.683 23.6013 295.075 22.78H300.339C299.779 24.908 298.668 26.588 297.007 27.82C295.346 29.0333 293.348 29.64 291.015 29.64C289.111 29.64 287.403 29.22 285.891 28.38C284.398 27.5213 283.231 26.336 282.391 24.824C281.551 23.312 281.131 21.5853 281.131 19.644ZM312.567 29.696C310.719 29.696 309.02 29.2667 307.471 28.408C305.94 27.5493 304.718 26.3547 303.803 24.824C302.907 23.2747 302.459 21.5387 302.459 19.616C302.459 17.6933 302.907 15.9667 303.803 14.436C304.718 12.9053 305.94 11.7107 307.471 10.852C309.02 9.99333 310.719 9.564 312.567 9.564C314.415 9.564 316.104 9.99333 317.635 10.852C319.184 11.7107 320.398 12.9053 321.275 14.436C322.171 15.9667 322.619 17.6933 322.619 19.616C322.619 21.5387 322.171 23.2747 321.275 24.824C320.379 26.3547 319.166 27.5493 317.635 28.408C316.104 29.2667 314.415 29.696 312.567 29.696ZM312.567 25.328C314.135 25.328 315.386 24.8053 316.319 23.76C317.271 22.7147 317.747 21.3333 317.747 19.616C317.747 17.88 317.271 16.4987 316.319 15.472C315.386 14.4267 314.135 13.904 312.567 13.904C310.98 13.904 309.711 14.4173 308.759 15.444C307.826 16.4707 307.359 17.8613 307.359 19.616C307.359 21.352 307.826 22.7427 308.759 23.788C309.711 24.8147 310.98 25.328 312.567 25.328ZM332.395 29.696C330.958 29.696 329.67 29.4627 328.531 28.996C327.392 28.5293 326.478 27.8387 325.787 26.924C325.115 26.0093 324.76 24.908 324.723 23.62H329.819C329.894 24.348 330.146 24.908 330.575 25.3C331.004 25.6733 331.564 25.86 332.255 25.86C332.964 25.86 333.524 25.7013 333.935 25.384C334.346 25.048 334.551 24.5907 334.551 24.012C334.551 23.5267 334.383 23.1253 334.047 22.808C333.73 22.4907 333.328 22.2293 332.843 22.024C332.376 21.8187 331.704 21.5853 330.827 21.324C329.558 20.932 328.522 20.54 327.719 20.148C326.916 19.756 326.226 19.1773 325.647 18.412C325.068 17.6467 324.779 16.648 324.779 15.416C324.779 13.5867 325.442 12.1587 326.767 11.132C328.092 10.0867 329.819 9.564 331.947 9.564C334.112 9.564 335.858 10.0867 337.183 11.132C338.508 12.1587 339.218 13.596 339.311 15.444H334.131C334.094 14.8093 333.86 14.3147 333.431 13.96C333.002 13.5867 332.451 13.4 331.779 13.4C331.2 13.4 330.734 13.5587 330.379 13.876C330.024 14.1747 329.847 14.6133 329.847 15.192C329.847 15.8267 330.146 16.3213 330.743 16.676C331.34 17.0307 332.274 17.4133 333.543 17.824C334.812 18.2533 335.839 18.664 336.623 19.056C337.426 19.448 338.116 20.0173 338.695 20.764C339.274 21.5107 339.563 22.472 339.563 23.648C339.563 24.768 339.274 25.7853 338.695 26.7C338.135 27.6147 337.314 28.3427 336.231 28.884C335.148 29.4253 333.87 29.696 332.395 29.696ZM347.799 25.664C348.434 25.16 348.723 24.9267 348.667 24.964C350.496 23.452 351.934 22.2107 352.979 21.24C354.043 20.2693 354.939 19.252 355.667 18.188C356.395 17.124 356.759 16.088 356.759 15.08C356.759 14.3147 356.582 13.7173 356.227 13.288C355.872 12.8587 355.34 12.644 354.631 12.644C353.922 12.644 353.362 12.9147 352.951 13.456C352.559 13.9787 352.363 14.7253 352.363 15.696H347.743C347.78 14.1093 348.116 12.784 348.751 11.72C349.404 10.656 350.254 9.872 351.299 9.368C352.363 8.864 353.539 8.612 354.827 8.612C357.048 8.612 358.719 9.18133 359.839 10.32C360.978 11.4587 361.547 12.9427 361.547 14.772C361.547 16.7693 360.866 18.6267 359.503 20.344C358.14 22.0427 356.404 23.704 354.295 25.328H361.855V29.22H347.799V25.664ZM363.459 13.512V9.06H371.215V29.5H366.231V13.512H363.459ZM374.602 25.86V21.996L383.45 9.34H388.798V21.716H391.094V25.86H388.798V29.5H384.01V25.86H374.602ZM384.346 14.604L379.642 21.716H384.346V14.604Z" fill="#3D6C6B"/>
</g>
<defs>
<clipPath id="clip0_13_998">
<rect width="469" height="307" fill="white"/>
</clipPath>
</defs>
</svg>
