<svg width="28" height="28" viewBox="0 0 28 28" fill="none" xmlns="http://www.w3.org/2000/svg">
<g clip-path="url(#clip0_236_99)">
<circle cx="14" cy="14" r="14" fill="#F80000"/>
<path d="M9.74951 8.288L13.8668 12.4053L17.9628 8.30933C18.0533 8.21303 18.1623 8.13599 18.2833 8.08284C18.4043 8.02969 18.5347 8.00151 18.6668 8C18.9497 8 19.2211 8.11238 19.4211 8.31242C19.6211 8.51246 19.7335 8.78377 19.7335 9.06667C19.736 9.19744 19.7117 9.32735 19.6622 9.44841C19.6127 9.56947 19.5389 9.67913 19.4455 9.77067L15.2962 13.8667L19.4455 18.016C19.6213 18.188 19.7244 18.4209 19.7335 18.6667C19.7335 18.9496 19.6211 19.2209 19.4211 19.4209C19.2211 19.621 18.9497 19.7333 18.6668 19.7333C18.5309 19.739 18.3953 19.7163 18.2686 19.6667C18.1419 19.6171 18.0269 19.5417 17.9308 19.4453L13.8668 15.328L9.76017 19.4347C9.67005 19.5278 9.56238 19.6021 9.44338 19.6533C9.32438 19.7046 9.1964 19.7318 9.06684 19.7333C8.78394 19.7333 8.51263 19.621 8.31259 19.4209C8.11255 19.2209 8.00017 18.9496 8.00017 18.6667C7.99769 18.5359 8.02195 18.406 8.07147 18.2849C8.121 18.1639 8.19474 18.0542 8.28817 17.9627L12.4375 13.8667L8.28817 9.71733C8.11237 9.54534 8.00928 9.31244 8.00017 9.06667C8.00017 8.78377 8.11255 8.51246 8.31259 8.31242C8.51263 8.11238 8.78394 8 9.06684 8C9.32284 8.0032 9.56817 8.10667 9.74951 8.288Z" fill="white"/>
</g>
<defs>
<clipPath id="clip0_236_99">
<rect width="28" height="28" fill="white"/>
</clipPath>
</defs>
</svg>
