<svg width="52" height="52" viewBox="0 0 52 52" fill="none" xmlns="http://www.w3.org/2000/svg">
<circle cx="26" cy="26" r="26" fill="#F80000"/>
<path d="M18.2802 15.54L26 23.2594L33.6798 15.58C33.8494 15.3994 34.0538 15.255 34.2806 15.1553C34.5074 15.0557 34.752 15.0028 34.9997 15C35.5302 15 36.0388 15.2107 36.4139 15.5857C36.789 15.9608 36.9997 16.4695 36.9997 16.9999C37.0043 17.245 36.9588 17.4886 36.866 17.7156C36.7731 17.9425 36.6349 18.1481 36.4597 18.3198L28.6799 25.9992L36.4597 33.7787C36.7893 34.1011 36.9826 34.5378 36.9997 34.9986C36.9997 35.529 36.789 36.0376 36.4139 36.4127C36.0388 36.7877 35.5302 36.9984 34.9997 36.9984C34.7449 37.009 34.4906 36.9665 34.253 36.8735C34.0154 36.7805 33.7998 36.6392 33.6198 36.4585L26 28.739L18.3002 36.4385C18.1312 36.613 17.9294 36.7523 17.7062 36.8484C17.4831 36.9445 17.2432 36.9955 17.0003 36.9984C16.4698 36.9984 15.9612 36.7877 15.5861 36.4127C15.211 36.0376 15.0003 35.529 15.0003 34.9986C14.9957 34.7534 15.0412 34.5098 15.134 34.2829C15.2269 34.0559 15.3651 33.8503 15.5403 33.6787L23.3201 25.9992L15.5403 18.2198C15.2107 17.8973 15.0174 17.4606 15.0003 16.9999C15.0003 16.4695 15.211 15.9608 15.5861 15.5857C15.9612 15.2107 16.4698 15 17.0003 15C17.4803 15.006 17.9402 15.2 18.2802 15.54Z" fill="white"/>
</svg>
