<svg width="52" height="52" viewBox="0 0 52 52" fill="none" xmlns="http://www.w3.org/2000/svg">
<path d="M38.2899 29.25H12.1875C10.6791 29.25 9.23244 29.8492 8.16583 30.9158C7.09922 31.9824 6.5 33.4291 6.5 34.9375V35.75C6.5 39.6386 8.97488 42.9276 12.4881 45.1636C16.0209 47.4126 20.8033 48.75 26 48.75C31.1968 48.75 35.9775 47.4126 39.5119 45.1653C41.6163 43.8246 43.3469 42.1086 44.3983 40.1115L38.2899 29.25Z" fill="url(#paint0_linear_134_268)"/>
<path d="M38.2899 29.25H12.1875C10.6791 29.25 9.23244 29.8492 8.16583 30.9158C7.09922 31.9824 6.5 33.4291 6.5 34.9375V35.75C6.5 39.6386 8.97488 42.9276 12.4881 45.1636C16.0209 47.4126 20.8033 48.75 26 48.75C31.1968 48.75 35.9775 47.4126 39.5119 45.1653C41.6163 43.8246 43.3469 42.1086 44.3983 40.1115L38.2899 29.25Z" fill="url(#paint1_linear_134_268)"/>
<path d="M38.2899 29.25H12.1875C10.6791 29.25 9.23244 29.8492 8.16583 30.9158C7.09922 31.9824 6.5 33.4291 6.5 34.9375V35.75C6.5 39.6386 8.97488 42.9276 12.4881 45.1636C16.0209 47.4126 20.8033 48.75 26 48.75C31.1968 48.75 35.9775 47.4126 39.5119 45.1653C41.6163 43.8246 43.3469 42.1086 44.3983 40.1115L38.2899 29.25Z" fill="#007B7C"/>
<path d="M26 26C29.0168 26 31.9101 24.8016 34.0433 22.6683C36.1766 20.5351 37.375 17.6418 37.375 14.625C37.375 11.6082 36.1766 8.71489 34.0433 6.58166C31.9101 4.44843 29.0168 3.25 26 3.25C22.9832 3.25 20.0899 4.44843 17.9567 6.58166C15.8234 8.71489 14.625 11.6082 14.625 14.625C14.625 17.6418 15.8234 20.5351 17.9567 22.6683C20.0899 24.8016 22.9832 26 26 26Z" fill="#007B7C"/>
<path d="M35.3218 26.4225L25.5751 44.7882C24.4262 46.9527 25.9959 49.5625 28.4464 49.5625H46.3036C48.7541 49.5625 50.3222 46.9543 49.1733 44.7882L39.4266 26.4225C38.5539 24.7763 36.1944 24.7763 35.3218 26.4225Z" fill="url(#paint2_linear_134_268)"/>
<path d="M38.5918 32.0938V41.0312C38.5918 41.3545 38.4634 41.6645 38.2348 41.893C38.0063 42.1216 37.6963 42.25 37.373 42.25C37.0498 42.25 36.7398 42.1216 36.5113 41.893C36.2827 41.6645 36.1543 41.3545 36.1543 41.0312V32.0938C36.1543 31.7705 36.2827 31.4605 36.5113 31.232C36.7398 31.0034 37.0498 30.875 37.373 30.875C37.6963 30.875 38.0063 31.0034 38.2348 31.232C38.4634 31.4605 38.5918 31.7705 38.5918 32.0938ZM38.998 45.5C38.998 45.931 38.8268 46.3443 38.5221 46.649C38.2173 46.9538 37.804 47.125 37.373 47.125C36.9421 47.125 36.5287 46.9538 36.224 46.649C35.9193 46.3443 35.748 45.931 35.748 45.5C35.748 45.069 35.9193 44.6557 36.224 44.351C36.5287 44.0462 36.9421 43.875 37.373 43.875C37.804 43.875 38.2173 44.0462 38.5221 44.351C38.8268 44.6557 38.998 45.069 38.998 45.5Z" fill="url(#paint3_linear_134_268)"/>
<defs>
<linearGradient id="paint0_linear_134_268" x1="15.7739" y1="31.8419" x2="22.074" y2="51.9626" gradientUnits="userSpaceOnUse">
<stop offset="0.125" stop-color="#9C6CFE"/>
<stop offset="1" stop-color="#7A41DC"/>
</linearGradient>
<linearGradient id="paint1_linear_134_268" x1="26" y1="26.9279" x2="34.8221" y2="59.8926" gradientUnits="userSpaceOnUse">
<stop stop-color="#885EDB" stop-opacity="0"/>
<stop offset="1" stop-color="#E362F8"/>
</linearGradient>
<linearGradient id="paint2_linear_134_268" x1="28.9989" y1="21.3801" x2="44.9971" y2="51.8423" gradientUnits="userSpaceOnUse">
<stop stop-color="#FFCD0F"/>
<stop offset="1" stop-color="#FE8401"/>
</linearGradient>
<linearGradient id="paint3_linear_134_268" x1="33.0392" y1="30.875" x2="40.8457" y2="47.528" gradientUnits="userSpaceOnUse">
<stop stop-color="#4A4A4A"/>
<stop offset="1" stop-color="#212121"/>
</linearGradient>
</defs>
</svg>
