<svg width="16" height="16" viewBox="0 0 16 16" fill="none" xmlns="http://www.w3.org/2000/svg">
<path d="M3.4065 1.203L2.7025 1.906L3.75 2.953L4.453 2.25L3.4065 1.203ZM12.594 1.203L11.5465 2.25L12.25 2.953L13.297 1.9065L12.594 1.203ZM8 1.515C7.835 1.51634 7.66833 1.527 7.5 1.547H7.485C5.457 1.7795 3.843 3.418 3.5625 5.437C3.3385 7.062 4.0085 8.5355 5.125 9.4845C5.58164 9.87433 5.89054 10.4092 6 10.9995V13.9995H7.14C7.314 14.298 7.6315 14.4995 8 14.4995C8.3685 14.4995 8.686 14.298 8.86 13.9995H10V11.9995H10.047V11.4055C10.047 10.6725 10.428 9.9335 11.047 9.359C11.875 8.53 12.5 7.3525 12.5 6C12.5 3.53 10.467 1.492 8 1.515ZM8 2.515C9.9325 2.488 11.5 4.07 11.5 6C11.5 7.047 11.015 7.969 10.3435 8.64L10.3595 8.656C9.69246 9.27156 9.26101 10.1005 9.1395 11H6.9525C6.8425 10.143 6.475 9.3135 5.7805 8.7185C4.897 7.9685 4.3705 6.8385 4.5465 5.5625C4.765 3.9875 6.043 2.721 7.609 2.5475C7.7383 2.52957 7.86851 2.51889 7.999 2.5155L8 2.515ZM1 6V7H2.5V6H1ZM13.5 6V7H15V6H13.5ZM3.75 10.047L2.703 11.0935L3.4065 11.797L4.4525 10.75L3.75 10.047ZM12.25 10.047L11.547 10.75L12.5935 11.797L13.297 11.0935L12.25 10.047ZM7 12H9V13H7V12Z" fill="#007B7C"/>
</svg>
