<svg width="52" height="52" viewBox="0 0 52 52" fill="none" xmlns="http://www.w3.org/2000/svg">
<path d="M25.8913 39C26.6497 39 27.291 38.7378 27.8153 38.2135C28.3397 37.6892 28.6011 37.0485 28.5997 36.2917C28.5982 35.5348 28.3368 34.8934 27.8153 34.3677C27.2939 33.8419 26.6526 33.5804 25.8913 33.5833C25.1301 33.5862 24.4895 33.8484 23.9695 34.3698C23.4495 34.8913 23.1873 35.5319 23.183 36.2917C23.1787 37.0514 23.4408 37.6928 23.9695 38.2157C24.4982 38.7385 25.1388 39 25.8913 39ZM23.9413 30.6583H27.9497C27.9497 29.4667 28.0855 28.5278 28.357 27.8417C28.6286 27.1555 29.3956 26.2167 30.658 25.025C31.5969 24.0861 32.3372 23.192 32.8788 22.3427C33.4205 21.4933 33.6913 20.4735 33.6913 19.2833C33.6913 17.2611 32.9511 15.7083 31.4705 14.625C29.99 13.5417 28.2386 13 26.2163 13C24.158 13 22.4882 13.5417 21.207 14.625C19.9258 15.7083 19.0317 17.0083 18.5247 18.525L22.0997 19.9333C22.2802 19.2833 22.6868 18.5792 23.3195 17.8208C23.9522 17.0625 24.9178 16.6833 26.2163 16.6833C27.3719 16.6833 28.2386 16.9997 28.8163 17.6323C29.3941 18.265 29.683 18.9598 29.683 19.7167C29.683 20.4389 29.4663 21.1163 29.033 21.749C28.5997 22.3817 28.058 22.9681 27.408 23.5083C25.8191 24.9167 24.8441 25.9819 24.483 26.7042C24.1219 27.4264 23.9413 28.7444 23.9413 30.6583ZM25.9997 47.6667C23.0025 47.6667 20.1858 47.0983 17.5497 45.9615C14.9136 44.8247 12.6205 43.2806 10.6705 41.3292C8.72051 39.3777 7.17712 37.0847 6.04034 34.45C4.90357 31.8153 4.33445 28.9987 4.33301 26C4.33157 23.0013 4.90068 20.1847 6.04034 17.55C7.18001 14.9153 8.7234 12.6223 10.6705 10.6708C12.6176 8.71938 14.9107 7.17599 17.5497 6.04066C20.1887 4.90532 23.0053 4.33621 25.9997 4.33332C28.994 4.33044 31.8107 4.89955 34.4497 6.04066C37.0887 7.18177 39.3817 8.72516 41.3288 10.6708C43.276 12.6165 44.8201 14.9095 45.9612 17.55C47.1023 20.1904 47.6707 23.0071 47.6663 26C47.662 28.9929 47.0929 31.8095 45.959 34.45C44.8251 37.0904 43.2817 39.3835 41.3288 41.3292C39.376 43.2748 37.0829 44.8189 34.4497 45.9615C31.8165 47.104 28.9998 47.6724 25.9997 47.6667Z" fill="#007B7C"/>
</svg>
